<?xml version="1.0" encoding="UTF-8"?>
<svg width="643px" height="733px" viewBox="0 0 643 733" version="1.1" xmlns="http://www.w3.org/2000/svg" xmlns:xlink="http://www.w3.org/1999/xlink">
    <title>FE0C9A8E-1925-45DC-90F7-364EEFB39189</title>
    <g id="Desktop-Designs" stroke="none" stroke-width="1" fill="none" fill-rule="evenodd" opacity="0.100000001">
        <g id="Olam-Homepage" transform="translate(-344.000000, -3706.000000)" fill="#92BE1A" fill-rule="nonzero">
            <g id="Path" transform="translate(0.000000, 3706.000000)">
                <path d="M411.046026,-85.9767293 C380.754949,-79.4531784 356.578125,-54.8874636 347.561851,-25.7163017 C338.225355,4.50382315 347.661921,36.2224666 370.968138,57.4015294 C393.473799,77.8313328 427.007133,87.4718024 456.127396,76.3028439 C483.36635,65.8531742 507.032818,36.0526345 493.883668,6.26208497 C482.775939,-18.8930471 449.85303,-33.5985095 424.135134,-22.6193633 C398.417239,-11.6402171 385.918542,19.0894041 390.621814,45.6231733 C396.56595,79.1000786 429.148623,97.5718177 458.939352,106.932564 C495.024462,118.341285 537.063714,120.019626 566.624284,146.273672 C589.930501,166.973209 601.358453,199.221329 599.036838,230.020881 C597.974951,245.455183 593.073722,260.381352 584.776915,273.44795 C575.60053,287.623935 559.939632,299.761936 542.667614,301.420297 C523.454244,303.268469 509.644635,288.553017 508.253667,270.081278 C506.742616,249.771356 519.071194,232.018906 530.789348,216.604144 C553.174925,187.173239 581.824861,157.872206 619.010736,148.801173 C651.943652,140.809074 691.551213,149.860126 709.013364,181.159185 C728.807137,216.644105 714.717333,258.99224 693.732731,290.301289 C682.344807,307.284499 668.805385,322.779182 655.47611,338.253884 C641.926682,353.988329 628.25717,369.642853 615.448257,386.016666 C591.211392,417.065971 570.066679,451.142284 560.950336,489.844024 C552.394382,526.148134 554.946158,565.189539 575.130203,597.347748 C593.883252,627.31812 624.164322,648.467212 656.36673,662.02381 C696.594722,679.007021 740.325152,685.680424 782.954815,693.812384 L919.689961,719.906588 L985.255584,732.414223 C986.666566,732.683957 987.256977,730.52609 985.856002,730.246366 L850.761998,704.461857 C806.811415,696.080143 762.550617,688.65748 718.900243,678.827199 C680.043205,670.06586 641.066083,657.308472 609.614198,632.063428 C595.684505,620.88448 583.435982,607.467743 574.539792,591.92311 C564.989461,574.94299 559.563683,555.962482 558.698769,536.507893 C554.34574,451.881553 617.129427,387.035659 667.894752,327.204806 C692.071575,298.692993 716.928872,266.944379 720.251183,228.302579 C721.702193,211.599092 719.050348,194.136356 710.654506,179.440883 C702.919763,166.180377 690.964278,155.88375 676.690872,150.1898 C645.88944,137.552294 611.195298,144.415509 583.796233,161.828295 C568.485579,171.588646 555.146297,184.156222 543.238011,197.74279 C531.07955,211.629063 518.3607,226.883982 510.975561,243.917143 C504.691188,258.422803 503.260193,276.295135 512.52664,289.941644 C520.812406,302.129595 535.482614,305.985783 549.362272,302.49923 C579.593308,294.906736 597.055459,264.346947 600.748028,235.315647 C604.40057,206.524109 595.9647,176.004281 577.111581,153.786245 C553.094869,125.524184 515.608785,118.74089 481.334936,110.608929 C448.872347,102.916534 409.014613,89.939363 395.7754,55.7831293 C385.19804,28.5001008 396.545937,-7.65415767 424.065085,-20.1418126 C451.864429,-32.7793194 489.750792,-13.1487258 494.834329,17.1113596 C500.938577,53.3755094 461.250961,79.1500292 429.178644,78.7803946 C397.106326,78.41076 365.744504,57.8011343 352.525305,28.6099922 C338.785745,-1.7799648 348.432457,-37.744411 371.178285,-61.0613602 C382.119702,-72.4479265 396.188532,-80.3515848 411.616423,-83.778902 C413.047419,-84.0885959 412.426987,-86.2464627 411.046026,-85.9767293 Z"></path>
            </g>
        </g>
    </g>
</svg>